<mxfile host="app.diagrams.net" modified="2024-05-03T12:30:57.554Z" agent="Mozilla/5.0 (Windows NT 10.0; Win64; x64) AppleWebKit/537.36 (KHTML, like Gecko) Chrome/124.0.0.0 Safari/537.36 Edg/124.0.0.0" etag="_pzDcbEEoWjUezSEFKiD" version="24.3.1" type="github">
  <diagram id="R2lEEEUBdFMjLlhIrx00" name="Page-1">
    <mxGraphModel dx="1396" dy="986" grid="0" gridSize="10" guides="1" tooltips="1" connect="1" arrows="1" fold="1" page="0" pageScale="1" pageWidth="850" pageHeight="1100" math="0" shadow="0" extFonts="Permanent Marker^https://fonts.googleapis.com/css?family=Permanent+Marker">
      <root>
        <mxCell id="0" />
        <mxCell id="1" parent="0" />
        <mxCell id="-69_IPSq3md6PTXuD7Ai-7" style="edgeStyle=orthogonalEdgeStyle;rounded=0;orthogonalLoop=1;jettySize=auto;html=1;exitX=0.5;exitY=1;exitDx=0;exitDy=0;entryX=0.5;entryY=0;entryDx=0;entryDy=0;endArrow=none;endFill=0;" edge="1" parent="1" source="8AcE9VLsiSv5FkU7A8uQ-1" target="-69_IPSq3md6PTXuD7Ai-3">
          <mxGeometry relative="1" as="geometry" />
        </mxCell>
        <mxCell id="-69_IPSq3md6PTXuD7Ai-13" value="n" style="edgeLabel;html=1;align=center;verticalAlign=middle;resizable=0;points=[];" vertex="1" connectable="0" parent="-69_IPSq3md6PTXuD7Ai-7">
          <mxGeometry x="0.3745" y="1" relative="1" as="geometry">
            <mxPoint x="-25" y="14" as="offset" />
          </mxGeometry>
        </mxCell>
        <mxCell id="-69_IPSq3md6PTXuD7Ai-8" style="edgeStyle=orthogonalEdgeStyle;rounded=0;orthogonalLoop=1;jettySize=auto;html=1;exitX=0.5;exitY=1;exitDx=0;exitDy=0;entryX=0.5;entryY=0;entryDx=0;entryDy=0;endArrow=none;endFill=0;" edge="1" parent="1" source="8AcE9VLsiSv5FkU7A8uQ-1" target="-69_IPSq3md6PTXuD7Ai-4">
          <mxGeometry relative="1" as="geometry" />
        </mxCell>
        <mxCell id="-69_IPSq3md6PTXuD7Ai-14" value="n" style="edgeLabel;html=1;align=center;verticalAlign=middle;resizable=0;points=[];" vertex="1" connectable="0" parent="-69_IPSq3md6PTXuD7Ai-8">
          <mxGeometry x="0.6431" y="-4" relative="1" as="geometry">
            <mxPoint as="offset" />
          </mxGeometry>
        </mxCell>
        <mxCell id="-69_IPSq3md6PTXuD7Ai-9" style="edgeStyle=orthogonalEdgeStyle;rounded=0;orthogonalLoop=1;jettySize=auto;html=1;exitX=0.5;exitY=1;exitDx=0;exitDy=0;entryX=0.5;entryY=0;entryDx=0;entryDy=0;endArrow=none;endFill=0;" edge="1" parent="1" source="8AcE9VLsiSv5FkU7A8uQ-1" target="-69_IPSq3md6PTXuD7Ai-5">
          <mxGeometry relative="1" as="geometry" />
        </mxCell>
        <mxCell id="-69_IPSq3md6PTXuD7Ai-15" value="n" style="edgeLabel;html=1;align=center;verticalAlign=middle;resizable=0;points=[];" vertex="1" connectable="0" parent="-69_IPSq3md6PTXuD7Ai-9">
          <mxGeometry x="0.6431" y="2" relative="1" as="geometry">
            <mxPoint as="offset" />
          </mxGeometry>
        </mxCell>
        <mxCell id="-69_IPSq3md6PTXuD7Ai-10" style="edgeStyle=orthogonalEdgeStyle;rounded=0;orthogonalLoop=1;jettySize=auto;html=1;exitX=0.5;exitY=1;exitDx=0;exitDy=0;entryX=0.5;entryY=0;entryDx=0;entryDy=0;endArrow=none;endFill=0;" edge="1" parent="1" source="8AcE9VLsiSv5FkU7A8uQ-1" target="-69_IPSq3md6PTXuD7Ai-6">
          <mxGeometry relative="1" as="geometry" />
        </mxCell>
        <mxCell id="-69_IPSq3md6PTXuD7Ai-16" value="n" style="edgeLabel;html=1;align=center;verticalAlign=middle;resizable=0;points=[];" vertex="1" connectable="0" parent="-69_IPSq3md6PTXuD7Ai-10">
          <mxGeometry x="0.7891" y="2" relative="1" as="geometry">
            <mxPoint as="offset" />
          </mxGeometry>
        </mxCell>
        <mxCell id="8AcE9VLsiSv5FkU7A8uQ-1" value="收藏" style="shape=rhombus;perimeter=rhombusPerimeter;whiteSpace=wrap;html=1;align=center;" parent="1" vertex="1">
          <mxGeometry x="143" y="229" width="90" height="60" as="geometry" />
        </mxCell>
        <mxCell id="-69_IPSq3md6PTXuD7Ai-2" value="" style="edgeStyle=orthogonalEdgeStyle;rounded=0;orthogonalLoop=1;jettySize=auto;html=1;endArrow=none;endFill=0;" edge="1" parent="1" source="8AcE9VLsiSv5FkU7A8uQ-2" target="8AcE9VLsiSv5FkU7A8uQ-1">
          <mxGeometry relative="1" as="geometry" />
        </mxCell>
        <mxCell id="-69_IPSq3md6PTXuD7Ai-12" value="1" style="edgeLabel;html=1;align=center;verticalAlign=middle;resizable=0;points=[];" vertex="1" connectable="0" parent="-69_IPSq3md6PTXuD7Ai-2">
          <mxGeometry x="0.072" y="2" relative="1" as="geometry">
            <mxPoint x="13" as="offset" />
          </mxGeometry>
        </mxCell>
        <mxCell id="8AcE9VLsiSv5FkU7A8uQ-2" value="用户" style="whiteSpace=wrap;html=1;align=center;" parent="1" vertex="1">
          <mxGeometry x="230" y="116" width="70" height="40" as="geometry" />
        </mxCell>
        <mxCell id="-69_IPSq3md6PTXuD7Ai-51" value="" style="edgeStyle=orthogonalEdgeStyle;rounded=0;orthogonalLoop=1;jettySize=auto;html=1;endArrow=none;endFill=0;" edge="1" parent="1" source="-69_IPSq3md6PTXuD7Ai-1" target="-69_IPSq3md6PTXuD7Ai-49">
          <mxGeometry relative="1" as="geometry" />
        </mxCell>
        <mxCell id="-69_IPSq3md6PTXuD7Ai-56" value="1" style="edgeLabel;html=1;align=center;verticalAlign=middle;resizable=0;points=[];" vertex="1" connectable="0" parent="-69_IPSq3md6PTXuD7Ai-51">
          <mxGeometry x="0.0933" y="1" relative="1" as="geometry">
            <mxPoint as="offset" />
          </mxGeometry>
        </mxCell>
        <mxCell id="-69_IPSq3md6PTXuD7Ai-1" value="管理员" style="whiteSpace=wrap;html=1;align=center;" vertex="1" parent="1">
          <mxGeometry x="153" y="594" width="70" height="40" as="geometry" />
        </mxCell>
        <mxCell id="-69_IPSq3md6PTXuD7Ai-3" value="视频" style="whiteSpace=wrap;html=1;align=center;" vertex="1" parent="1">
          <mxGeometry x="13" y="359" width="70" height="40" as="geometry" />
        </mxCell>
        <mxCell id="-69_IPSq3md6PTXuD7Ai-4" value="电子书" style="whiteSpace=wrap;html=1;align=center;" vertex="1" parent="1">
          <mxGeometry x="103" y="359" width="70" height="40" as="geometry" />
        </mxCell>
        <mxCell id="-69_IPSq3md6PTXuD7Ai-5" value="新闻" style="whiteSpace=wrap;html=1;align=center;" vertex="1" parent="1">
          <mxGeometry x="203" y="359" width="70" height="40" as="geometry" />
        </mxCell>
        <mxCell id="-69_IPSq3md6PTXuD7Ai-6" value="每日一句" style="whiteSpace=wrap;html=1;align=center;" vertex="1" parent="1">
          <mxGeometry x="293" y="359" width="70" height="40" as="geometry" />
        </mxCell>
        <mxCell id="-69_IPSq3md6PTXuD7Ai-17" style="edgeStyle=orthogonalEdgeStyle;rounded=0;orthogonalLoop=1;jettySize=auto;html=1;exitX=0.5;exitY=1;exitDx=0;exitDy=0;entryX=0.5;entryY=0;entryDx=0;entryDy=0;endArrow=none;endFill=0;" edge="1" parent="1" source="-69_IPSq3md6PTXuD7Ai-25" target="-69_IPSq3md6PTXuD7Ai-26">
          <mxGeometry relative="1" as="geometry" />
        </mxCell>
        <mxCell id="-69_IPSq3md6PTXuD7Ai-18" value="n" style="edgeLabel;html=1;align=center;verticalAlign=middle;resizable=0;points=[];" vertex="1" connectable="0" parent="-69_IPSq3md6PTXuD7Ai-17">
          <mxGeometry x="0.3745" y="1" relative="1" as="geometry">
            <mxPoint x="-24" y="19" as="offset" />
          </mxGeometry>
        </mxCell>
        <mxCell id="-69_IPSq3md6PTXuD7Ai-19" style="edgeStyle=orthogonalEdgeStyle;rounded=0;orthogonalLoop=1;jettySize=auto;html=1;exitX=0.5;exitY=1;exitDx=0;exitDy=0;entryX=0.5;entryY=0;entryDx=0;entryDy=0;endArrow=none;endFill=0;" edge="1" parent="1" source="-69_IPSq3md6PTXuD7Ai-25" target="-69_IPSq3md6PTXuD7Ai-27">
          <mxGeometry relative="1" as="geometry" />
        </mxCell>
        <mxCell id="-69_IPSq3md6PTXuD7Ai-20" value="n" style="edgeLabel;html=1;align=center;verticalAlign=middle;resizable=0;points=[];" vertex="1" connectable="0" parent="-69_IPSq3md6PTXuD7Ai-19">
          <mxGeometry x="0.6431" y="-4" relative="1" as="geometry">
            <mxPoint as="offset" />
          </mxGeometry>
        </mxCell>
        <mxCell id="-69_IPSq3md6PTXuD7Ai-21" style="edgeStyle=orthogonalEdgeStyle;rounded=0;orthogonalLoop=1;jettySize=auto;html=1;exitX=0.5;exitY=1;exitDx=0;exitDy=0;entryX=0.5;entryY=0;entryDx=0;entryDy=0;endArrow=none;endFill=0;" edge="1" parent="1" source="-69_IPSq3md6PTXuD7Ai-25" target="-69_IPSq3md6PTXuD7Ai-28">
          <mxGeometry relative="1" as="geometry" />
        </mxCell>
        <mxCell id="-69_IPSq3md6PTXuD7Ai-22" value="n" style="edgeLabel;html=1;align=center;verticalAlign=middle;resizable=0;points=[];" vertex="1" connectable="0" parent="-69_IPSq3md6PTXuD7Ai-21">
          <mxGeometry x="0.6431" y="2" relative="1" as="geometry">
            <mxPoint as="offset" />
          </mxGeometry>
        </mxCell>
        <mxCell id="-69_IPSq3md6PTXuD7Ai-23" style="edgeStyle=orthogonalEdgeStyle;rounded=0;orthogonalLoop=1;jettySize=auto;html=1;exitX=0.5;exitY=1;exitDx=0;exitDy=0;entryX=0.5;entryY=0;entryDx=0;entryDy=0;endArrow=none;endFill=0;" edge="1" parent="1" source="-69_IPSq3md6PTXuD7Ai-25" target="-69_IPSq3md6PTXuD7Ai-29">
          <mxGeometry relative="1" as="geometry" />
        </mxCell>
        <mxCell id="-69_IPSq3md6PTXuD7Ai-24" value="n" style="edgeLabel;html=1;align=center;verticalAlign=middle;resizable=0;points=[];" vertex="1" connectable="0" parent="-69_IPSq3md6PTXuD7Ai-23">
          <mxGeometry x="0.7891" y="2" relative="1" as="geometry">
            <mxPoint as="offset" />
          </mxGeometry>
        </mxCell>
        <mxCell id="-69_IPSq3md6PTXuD7Ai-25" value="管理" style="shape=rhombus;perimeter=rhombusPerimeter;whiteSpace=wrap;html=1;align=center;" vertex="1" parent="1">
          <mxGeometry x="114" y="738" width="90" height="60" as="geometry" />
        </mxCell>
        <mxCell id="-69_IPSq3md6PTXuD7Ai-26" value="视频" style="whiteSpace=wrap;html=1;align=center;" vertex="1" parent="1">
          <mxGeometry x="-16" y="878" width="70" height="40" as="geometry" />
        </mxCell>
        <mxCell id="-69_IPSq3md6PTXuD7Ai-27" value="电子书" style="whiteSpace=wrap;html=1;align=center;" vertex="1" parent="1">
          <mxGeometry x="74" y="878" width="70" height="40" as="geometry" />
        </mxCell>
        <mxCell id="-69_IPSq3md6PTXuD7Ai-28" value="新闻" style="whiteSpace=wrap;html=1;align=center;" vertex="1" parent="1">
          <mxGeometry x="174" y="878" width="70" height="40" as="geometry" />
        </mxCell>
        <mxCell id="-69_IPSq3md6PTXuD7Ai-29" value="每日一句" style="whiteSpace=wrap;html=1;align=center;" vertex="1" parent="1">
          <mxGeometry x="264" y="878" width="70" height="40" as="geometry" />
        </mxCell>
        <mxCell id="-69_IPSq3md6PTXuD7Ai-31" value="单词" style="whiteSpace=wrap;html=1;align=center;" vertex="1" parent="1">
          <mxGeometry x="230" y="-96" width="70" height="40" as="geometry" />
        </mxCell>
        <mxCell id="-69_IPSq3md6PTXuD7Ai-34" style="edgeStyle=orthogonalEdgeStyle;rounded=0;orthogonalLoop=1;jettySize=auto;html=1;exitX=0.5;exitY=0;exitDx=0;exitDy=0;entryX=0.5;entryY=1;entryDx=0;entryDy=0;endArrow=none;endFill=0;" edge="1" parent="1" source="-69_IPSq3md6PTXuD7Ai-32" target="-69_IPSq3md6PTXuD7Ai-31">
          <mxGeometry relative="1" as="geometry" />
        </mxCell>
        <mxCell id="-69_IPSq3md6PTXuD7Ai-36" value="n" style="edgeLabel;html=1;align=center;verticalAlign=middle;resizable=0;points=[];" vertex="1" connectable="0" parent="-69_IPSq3md6PTXuD7Ai-34">
          <mxGeometry x="0.0467" y="1" relative="1" as="geometry">
            <mxPoint as="offset" />
          </mxGeometry>
        </mxCell>
        <mxCell id="-69_IPSq3md6PTXuD7Ai-71" style="edgeStyle=orthogonalEdgeStyle;rounded=0;orthogonalLoop=1;jettySize=auto;html=1;exitX=0.5;exitY=1;exitDx=0;exitDy=0;entryX=0.5;entryY=0;entryDx=0;entryDy=0;endArrow=none;endFill=0;" edge="1" parent="1" source="-69_IPSq3md6PTXuD7Ai-32" target="8AcE9VLsiSv5FkU7A8uQ-2">
          <mxGeometry relative="1" as="geometry" />
        </mxCell>
        <mxCell id="-69_IPSq3md6PTXuD7Ai-72" value="1" style="edgeLabel;html=1;align=center;verticalAlign=middle;resizable=0;points=[];" vertex="1" connectable="0" parent="-69_IPSq3md6PTXuD7Ai-71">
          <mxGeometry x="0.1196" y="-1" relative="1" as="geometry">
            <mxPoint as="offset" />
          </mxGeometry>
        </mxCell>
        <mxCell id="-69_IPSq3md6PTXuD7Ai-32" value="搜索" style="shape=rhombus;perimeter=rhombusPerimeter;whiteSpace=wrap;html=1;align=center;" vertex="1" parent="1">
          <mxGeometry x="220" y="-2" width="90" height="60" as="geometry" />
        </mxCell>
        <mxCell id="-69_IPSq3md6PTXuD7Ai-42" value="电子书类别" style="whiteSpace=wrap;html=1;align=center;" vertex="1" parent="1">
          <mxGeometry x="-69" y="505" width="70" height="40" as="geometry" />
        </mxCell>
        <mxCell id="-69_IPSq3md6PTXuD7Ai-43" value="单词书类别" style="whiteSpace=wrap;html=1;align=center;" vertex="1" parent="1">
          <mxGeometry x="-69" y="561" width="70" height="40" as="geometry" />
        </mxCell>
        <mxCell id="-69_IPSq3md6PTXuD7Ai-44" value="单词书" style="whiteSpace=wrap;html=1;align=center;" vertex="1" parent="1">
          <mxGeometry x="639" y="29" width="70" height="40" as="geometry" />
        </mxCell>
        <mxCell id="-69_IPSq3md6PTXuD7Ai-45" value="学习计划" style="whiteSpace=wrap;html=1;align=center;" vertex="1" parent="1">
          <mxGeometry x="512" y="116" width="70" height="40" as="geometry" />
        </mxCell>
        <mxCell id="-69_IPSq3md6PTXuD7Ai-46" value="单词复习记录" style="whiteSpace=wrap;html=1;align=center;" vertex="1" parent="1">
          <mxGeometry x="363" y="30" width="80" height="38" as="geometry" />
        </mxCell>
        <mxCell id="-69_IPSq3md6PTXuD7Ai-100" value="1" style="edgeStyle=orthogonalEdgeStyle;rounded=0;orthogonalLoop=1;jettySize=auto;html=1;endArrow=none;endFill=0;" edge="1" parent="1" source="-69_IPSq3md6PTXuD7Ai-47" target="-69_IPSq3md6PTXuD7Ai-84">
          <mxGeometry relative="1" as="geometry" />
        </mxCell>
        <mxCell id="-69_IPSq3md6PTXuD7Ai-47" value="生词本" style="whiteSpace=wrap;html=1;align=center;" vertex="1" parent="1">
          <mxGeometry x="93" y="14" width="70" height="40" as="geometry" />
        </mxCell>
        <mxCell id="-69_IPSq3md6PTXuD7Ai-48" value="电子书系列" style="whiteSpace=wrap;html=1;align=center;" vertex="1" parent="1">
          <mxGeometry x="-69" y="449" width="70" height="40" as="geometry" />
        </mxCell>
        <mxCell id="-69_IPSq3md6PTXuD7Ai-52" style="edgeStyle=orthogonalEdgeStyle;rounded=0;orthogonalLoop=1;jettySize=auto;html=1;entryX=0.5;entryY=1;entryDx=0;entryDy=0;exitX=0.5;exitY=0;exitDx=0;exitDy=0;endArrow=none;endFill=0;" edge="1" parent="1" source="-69_IPSq3md6PTXuD7Ai-49" target="-69_IPSq3md6PTXuD7Ai-3">
          <mxGeometry relative="1" as="geometry" />
        </mxCell>
        <mxCell id="-69_IPSq3md6PTXuD7Ai-57" value="n" style="edgeLabel;html=1;align=center;verticalAlign=middle;resizable=0;points=[];" vertex="1" connectable="0" parent="-69_IPSq3md6PTXuD7Ai-52">
          <mxGeometry x="0.7964" y="2" relative="1" as="geometry">
            <mxPoint as="offset" />
          </mxGeometry>
        </mxCell>
        <mxCell id="-69_IPSq3md6PTXuD7Ai-53" style="edgeStyle=orthogonalEdgeStyle;rounded=0;orthogonalLoop=1;jettySize=auto;html=1;entryX=0.5;entryY=1;entryDx=0;entryDy=0;endArrow=none;endFill=0;" edge="1" parent="1" source="-69_IPSq3md6PTXuD7Ai-49" target="-69_IPSq3md6PTXuD7Ai-4">
          <mxGeometry relative="1" as="geometry" />
        </mxCell>
        <mxCell id="-69_IPSq3md6PTXuD7Ai-58" value="n" style="edgeLabel;html=1;align=center;verticalAlign=middle;resizable=0;points=[];" vertex="1" connectable="0" parent="-69_IPSq3md6PTXuD7Ai-53">
          <mxGeometry x="0.7477" y="3" relative="1" as="geometry">
            <mxPoint as="offset" />
          </mxGeometry>
        </mxCell>
        <mxCell id="-69_IPSq3md6PTXuD7Ai-54" style="edgeStyle=orthogonalEdgeStyle;rounded=0;orthogonalLoop=1;jettySize=auto;html=1;entryX=0.5;entryY=1;entryDx=0;entryDy=0;endArrow=none;endFill=0;" edge="1" parent="1" source="-69_IPSq3md6PTXuD7Ai-49" target="-69_IPSq3md6PTXuD7Ai-5">
          <mxGeometry relative="1" as="geometry" />
        </mxCell>
        <mxCell id="-69_IPSq3md6PTXuD7Ai-59" value="n" style="edgeLabel;html=1;align=center;verticalAlign=middle;resizable=0;points=[];" vertex="1" connectable="0" parent="-69_IPSq3md6PTXuD7Ai-54">
          <mxGeometry x="0.6708" relative="1" as="geometry">
            <mxPoint as="offset" />
          </mxGeometry>
        </mxCell>
        <mxCell id="-69_IPSq3md6PTXuD7Ai-55" style="edgeStyle=orthogonalEdgeStyle;rounded=0;orthogonalLoop=1;jettySize=auto;html=1;entryX=0.5;entryY=1;entryDx=0;entryDy=0;exitX=0.5;exitY=0;exitDx=0;exitDy=0;endArrow=none;endFill=0;" edge="1" parent="1" source="-69_IPSq3md6PTXuD7Ai-49" target="-69_IPSq3md6PTXuD7Ai-6">
          <mxGeometry relative="1" as="geometry" />
        </mxCell>
        <mxCell id="-69_IPSq3md6PTXuD7Ai-60" value="n" style="edgeLabel;html=1;align=center;verticalAlign=middle;resizable=0;points=[];" vertex="1" connectable="0" parent="-69_IPSq3md6PTXuD7Ai-55">
          <mxGeometry x="0.7964" y="-2" relative="1" as="geometry">
            <mxPoint as="offset" />
          </mxGeometry>
        </mxCell>
        <mxCell id="-69_IPSq3md6PTXuD7Ai-61" style="edgeStyle=orthogonalEdgeStyle;rounded=0;orthogonalLoop=1;jettySize=auto;html=1;exitX=0;exitY=0.5;exitDx=0;exitDy=0;entryX=1;entryY=0.5;entryDx=0;entryDy=0;endArrow=none;endFill=0;" edge="1" parent="1" source="-69_IPSq3md6PTXuD7Ai-49" target="-69_IPSq3md6PTXuD7Ai-48">
          <mxGeometry relative="1" as="geometry" />
        </mxCell>
        <mxCell id="-69_IPSq3md6PTXuD7Ai-63" value="n" style="edgeLabel;html=1;align=center;verticalAlign=middle;resizable=0;points=[];" vertex="1" connectable="0" parent="-69_IPSq3md6PTXuD7Ai-61">
          <mxGeometry x="0.563" relative="1" as="geometry">
            <mxPoint as="offset" />
          </mxGeometry>
        </mxCell>
        <mxCell id="-69_IPSq3md6PTXuD7Ai-62" style="edgeStyle=orthogonalEdgeStyle;rounded=0;orthogonalLoop=1;jettySize=auto;html=1;entryX=1;entryY=0.5;entryDx=0;entryDy=0;endArrow=none;endFill=0;" edge="1" parent="1" source="-69_IPSq3md6PTXuD7Ai-49" target="-69_IPSq3md6PTXuD7Ai-42">
          <mxGeometry relative="1" as="geometry" />
        </mxCell>
        <mxCell id="-69_IPSq3md6PTXuD7Ai-64" value="n" style="edgeLabel;html=1;align=center;verticalAlign=middle;resizable=0;points=[];" vertex="1" connectable="0" parent="-69_IPSq3md6PTXuD7Ai-62">
          <mxGeometry x="0.6024" y="-1" relative="1" as="geometry">
            <mxPoint as="offset" />
          </mxGeometry>
        </mxCell>
        <mxCell id="-69_IPSq3md6PTXuD7Ai-65" style="edgeStyle=orthogonalEdgeStyle;rounded=0;orthogonalLoop=1;jettySize=auto;html=1;entryX=1;entryY=0.5;entryDx=0;entryDy=0;endArrow=none;endFill=0;" edge="1" parent="1" source="-69_IPSq3md6PTXuD7Ai-49" target="-69_IPSq3md6PTXuD7Ai-43">
          <mxGeometry relative="1" as="geometry" />
        </mxCell>
        <mxCell id="-69_IPSq3md6PTXuD7Ai-66" value="n" style="edgeLabel;html=1;align=center;verticalAlign=middle;resizable=0;points=[];" vertex="1" connectable="0" parent="-69_IPSq3md6PTXuD7Ai-65">
          <mxGeometry x="0.7193" y="1" relative="1" as="geometry">
            <mxPoint as="offset" />
          </mxGeometry>
        </mxCell>
        <mxCell id="-69_IPSq3md6PTXuD7Ai-49" value="管理" style="shape=rhombus;perimeter=rhombusPerimeter;whiteSpace=wrap;html=1;align=center;" vertex="1" parent="1">
          <mxGeometry x="143" y="495" width="90" height="60" as="geometry" />
        </mxCell>
        <mxCell id="-69_IPSq3md6PTXuD7Ai-68" value="1" style="edgeStyle=orthogonalEdgeStyle;rounded=0;orthogonalLoop=1;jettySize=auto;html=1;endArrow=none;endFill=0;" edge="1" parent="1" source="-69_IPSq3md6PTXuD7Ai-67" target="-69_IPSq3md6PTXuD7Ai-44">
          <mxGeometry relative="1" as="geometry" />
        </mxCell>
        <mxCell id="-69_IPSq3md6PTXuD7Ai-69" value="n" style="edgeStyle=orthogonalEdgeStyle;rounded=0;orthogonalLoop=1;jettySize=auto;html=1;endArrow=none;endFill=0;" edge="1" parent="1" source="-69_IPSq3md6PTXuD7Ai-67" target="-69_IPSq3md6PTXuD7Ai-46">
          <mxGeometry relative="1" as="geometry" />
        </mxCell>
        <mxCell id="-69_IPSq3md6PTXuD7Ai-67" value="包含" style="shape=rhombus;perimeter=rhombusPerimeter;whiteSpace=wrap;html=1;align=center;" vertex="1" parent="1">
          <mxGeometry x="484" y="19" width="90" height="60" as="geometry" />
        </mxCell>
        <mxCell id="-69_IPSq3md6PTXuD7Ai-70" value="单词书关联" style="whiteSpace=wrap;html=1;align=center;" vertex="1" parent="1">
          <mxGeometry x="455" y="-194" width="70" height="40" as="geometry" />
        </mxCell>
        <mxCell id="-69_IPSq3md6PTXuD7Ai-74" value="1" style="edgeStyle=orthogonalEdgeStyle;rounded=0;orthogonalLoop=1;jettySize=auto;html=1;endArrow=none;endFill=0;" edge="1" parent="1" source="-69_IPSq3md6PTXuD7Ai-73" target="8AcE9VLsiSv5FkU7A8uQ-2">
          <mxGeometry relative="1" as="geometry" />
        </mxCell>
        <mxCell id="-69_IPSq3md6PTXuD7Ai-77" value="n" style="edgeStyle=orthogonalEdgeStyle;rounded=0;orthogonalLoop=1;jettySize=auto;html=1;entryX=0.5;entryY=1;entryDx=0;entryDy=0;endArrow=none;endFill=0;" edge="1" parent="1" source="-69_IPSq3md6PTXuD7Ai-73" target="-69_IPSq3md6PTXuD7Ai-46">
          <mxGeometry relative="1" as="geometry" />
        </mxCell>
        <mxCell id="-69_IPSq3md6PTXuD7Ai-79" value="n" style="edgeStyle=orthogonalEdgeStyle;rounded=0;orthogonalLoop=1;jettySize=auto;html=1;exitX=1;exitY=0.5;exitDx=0;exitDy=0;entryX=0;entryY=0.5;entryDx=0;entryDy=0;endArrow=none;endFill=0;" edge="1" parent="1" source="-69_IPSq3md6PTXuD7Ai-73" target="-69_IPSq3md6PTXuD7Ai-45">
          <mxGeometry relative="1" as="geometry" />
        </mxCell>
        <mxCell id="-69_IPSq3md6PTXuD7Ai-73" value="拥有" style="shape=rhombus;perimeter=rhombusPerimeter;whiteSpace=wrap;html=1;align=center;" vertex="1" parent="1">
          <mxGeometry x="358" y="106" width="90" height="60" as="geometry" />
        </mxCell>
        <mxCell id="-69_IPSq3md6PTXuD7Ai-83" value="收藏夹" style="whiteSpace=wrap;html=1;align=center;" vertex="1" parent="1">
          <mxGeometry x="-29" y="116" width="70" height="40" as="geometry" />
        </mxCell>
        <mxCell id="-69_IPSq3md6PTXuD7Ai-85" value="1" style="edgeStyle=orthogonalEdgeStyle;rounded=0;orthogonalLoop=1;jettySize=auto;html=1;exitX=1;exitY=0.5;exitDx=0;exitDy=0;entryX=0;entryY=0.5;entryDx=0;entryDy=0;endArrow=none;endFill=0;" edge="1" parent="1" source="-69_IPSq3md6PTXuD7Ai-84" target="8AcE9VLsiSv5FkU7A8uQ-2">
          <mxGeometry relative="1" as="geometry" />
        </mxCell>
        <mxCell id="-69_IPSq3md6PTXuD7Ai-86" value="1" style="edgeStyle=orthogonalEdgeStyle;rounded=0;orthogonalLoop=1;jettySize=auto;html=1;endArrow=none;endFill=0;" edge="1" parent="1" source="-69_IPSq3md6PTXuD7Ai-84" target="-69_IPSq3md6PTXuD7Ai-83">
          <mxGeometry relative="1" as="geometry" />
        </mxCell>
        <mxCell id="-69_IPSq3md6PTXuD7Ai-84" value="拥有" style="shape=rhombus;perimeter=rhombusPerimeter;whiteSpace=wrap;html=1;align=center;" vertex="1" parent="1">
          <mxGeometry x="83" y="106" width="90" height="60" as="geometry" />
        </mxCell>
        <mxCell id="-69_IPSq3md6PTXuD7Ai-88" value="" style="edgeStyle=orthogonalEdgeStyle;rounded=0;orthogonalLoop=1;jettySize=auto;html=1;endArrow=none;endFill=0;" edge="1" parent="1" source="-69_IPSq3md6PTXuD7Ai-87" target="-69_IPSq3md6PTXuD7Ai-46">
          <mxGeometry relative="1" as="geometry" />
        </mxCell>
        <mxCell id="-69_IPSq3md6PTXuD7Ai-89" value="" style="edgeStyle=orthogonalEdgeStyle;rounded=0;orthogonalLoop=1;jettySize=auto;html=1;endArrow=none;endFill=0;" edge="1" parent="1" source="-69_IPSq3md6PTXuD7Ai-87" target="-69_IPSq3md6PTXuD7Ai-31">
          <mxGeometry relative="1" as="geometry" />
        </mxCell>
        <mxCell id="-69_IPSq3md6PTXuD7Ai-87" value="收藏" style="shape=rhombus;perimeter=rhombusPerimeter;whiteSpace=wrap;html=1;align=center;" vertex="1" parent="1">
          <mxGeometry x="358" y="-58" width="90" height="60" as="geometry" />
        </mxCell>
        <mxCell id="-69_IPSq3md6PTXuD7Ai-91" value="1" style="edgeStyle=orthogonalEdgeStyle;rounded=0;orthogonalLoop=1;jettySize=auto;html=1;endArrow=none;endFill=0;" edge="1" parent="1" source="-69_IPSq3md6PTXuD7Ai-90" target="-69_IPSq3md6PTXuD7Ai-45">
          <mxGeometry relative="1" as="geometry" />
        </mxCell>
        <mxCell id="-69_IPSq3md6PTXuD7Ai-92" value="1" style="edgeStyle=orthogonalEdgeStyle;rounded=0;orthogonalLoop=1;jettySize=auto;html=1;endArrow=none;endFill=0;" edge="1" parent="1" source="-69_IPSq3md6PTXuD7Ai-90" target="-69_IPSq3md6PTXuD7Ai-44">
          <mxGeometry relative="1" as="geometry" />
        </mxCell>
        <mxCell id="-69_IPSq3md6PTXuD7Ai-90" value="拥有" style="shape=rhombus;perimeter=rhombusPerimeter;whiteSpace=wrap;html=1;align=center;" vertex="1" parent="1">
          <mxGeometry x="629" y="106" width="90" height="60" as="geometry" />
        </mxCell>
        <mxCell id="-69_IPSq3md6PTXuD7Ai-96" value="1" style="edgeStyle=orthogonalEdgeStyle;rounded=0;orthogonalLoop=1;jettySize=auto;html=1;endArrow=none;endFill=0;" edge="1" parent="1" source="-69_IPSq3md6PTXuD7Ai-95" target="-69_IPSq3md6PTXuD7Ai-44">
          <mxGeometry relative="1" as="geometry" />
        </mxCell>
        <mxCell id="-69_IPSq3md6PTXuD7Ai-98" value="n" style="edgeStyle=orthogonalEdgeStyle;rounded=0;orthogonalLoop=1;jettySize=auto;html=1;exitX=0;exitY=0.5;exitDx=0;exitDy=0;entryX=1;entryY=0.5;entryDx=0;entryDy=0;endArrow=none;endFill=0;" edge="1" parent="1" source="-69_IPSq3md6PTXuD7Ai-95" target="-69_IPSq3md6PTXuD7Ai-31">
          <mxGeometry relative="1" as="geometry" />
        </mxCell>
        <mxCell id="-69_IPSq3md6PTXuD7Ai-95" value="包含" style="shape=rhombus;perimeter=rhombusPerimeter;whiteSpace=wrap;html=1;align=center;" vertex="1" parent="1">
          <mxGeometry x="629" y="-76" width="90" height="60" as="geometry" />
        </mxCell>
        <mxCell id="-69_IPSq3md6PTXuD7Ai-102" value="n" style="edgeStyle=orthogonalEdgeStyle;rounded=0;orthogonalLoop=1;jettySize=auto;html=1;endArrow=none;endFill=0;" edge="1" parent="1" source="-69_IPSq3md6PTXuD7Ai-101" target="-69_IPSq3md6PTXuD7Ai-31">
          <mxGeometry relative="1" as="geometry" />
        </mxCell>
        <mxCell id="-69_IPSq3md6PTXuD7Ai-103" value="1" style="edgeStyle=orthogonalEdgeStyle;rounded=0;orthogonalLoop=1;jettySize=auto;html=1;endArrow=none;endFill=0;" edge="1" parent="1" source="-69_IPSq3md6PTXuD7Ai-101" target="-69_IPSq3md6PTXuD7Ai-47">
          <mxGeometry relative="1" as="geometry" />
        </mxCell>
        <mxCell id="-69_IPSq3md6PTXuD7Ai-101" value="包含" style="shape=rhombus;perimeter=rhombusPerimeter;whiteSpace=wrap;html=1;align=center;" vertex="1" parent="1">
          <mxGeometry x="83" y="-106" width="90" height="60" as="geometry" />
        </mxCell>
      </root>
    </mxGraphModel>
  </diagram>
</mxfile>
